<?xml version="1.0" encoding="iso-8859-1"?>
<!-- Generator: Adobe Illustrator 19.0.0, SVG Export Plug-In . SVG Version: 6.00 Build 0)  -->
<svg version="1.1" id="Capa_1" xmlns="http://www.w3.org/2000/svg" xmlns:xlink="http://www.w3.org/1999/xlink" x="0px" y="0px"
	 viewBox="0 0 512 512" style="enable-background:new 0 0 512 512;" xml:space="preserve">
<circle style="fill:#C06376;" cx="256.001" cy="242.5" r="140.28"/>
<path style="opacity:0.1;enable-background:new    ;" d="M280.989,379.318c-77.473,0-140.277-62.804-140.277-140.277
	c0-66.529,46.315-122.24,108.461-136.652c-74.301,3.562-133.449,64.926-133.449,140.109c0,77.473,62.804,140.277,140.277,140.277
	c10.943,0,21.593-1.255,31.815-3.625C285.554,379.259,283.278,379.318,280.989,379.318z"/>
<path style="fill:#485358;" d="M387.266,255.887h-262.53l-68.89,232.707l0,0c132.174-25.955,268.135-25.955,400.309,0l0,0
	L387.266,255.887z"/>
<path style="fill:#C06376;" d="M27.983,477.318l75.598-255.366l55.6,33.936l-71.22,240.578
	c-3.562,12.033-16.566,18.538-28.332,14.172l-18.393-6.825C30.537,499.842,24.743,488.261,27.983,477.318z"/>
<path style="fill:#F3CE72;" d="M36.316,449.17l-8.333,28.148c-3.24,10.943,2.554,22.525,13.253,26.495l18.393,6.825
	c11.766,4.366,24.769-2.139,28.332-14.172l7.74-26.146L36.316,449.17z"/>
<path style="opacity:0.1;enable-background:new    ;" d="M113.856,244.029l3.963-13.388l-14.238-8.69L27.983,477.318
	c-3.24,10.943,2.554,22.525,13.253,26.495l12.312,4.569c-8.892-4.803-13.432-15.264-10.486-25.216l41.779-141.128l44.546,14.491
	l29.014-98.009L113.856,244.029z"/>
<path style="fill:#C06376;" d="M484.019,477.318l-75.598-255.367l-55.6,33.936l71.221,240.579
	c3.562,12.033,16.566,18.538,28.332,14.172l18.393-6.825C481.465,499.842,487.259,488.261,484.019,477.318z"/>
<path style="fill:#F3CE72;" d="M475.686,449.17l8.333,28.148c3.24,10.943-2.554,22.525-13.253,26.495l-18.393,6.825
	c-11.766,4.366-24.769-2.139-28.332-14.172l-7.74-26.146L475.686,449.17z"/>
<polygon style="opacity:0.1;enable-background:new    ;" points="413.48,239.041 442.494,337.05 382.614,356.529 353.6,258.52 "/>
<g>
	<path style="fill:#E1EAEA;" d="M331.918,255.464H180.084l-14.03,24.277c-8.529,14.758,2.121,33.214,19.167,33.214h141.56
		c17.045,0,27.696-18.456,19.167-33.214L331.918,255.464z"/>
	<path style="fill:#E1EAEA;" d="M133.874,338.161l-114.11-37.12c-7.949-2.586-12.297-11.126-9.711-19.075l22.244-68.379
		c2.586-7.949,11.126-12.297,19.075-9.711l114.11,37.12c7.949,2.586,12.297,11.126,9.711,19.075l-22.244,68.379
		C150.363,336.399,141.823,340.746,133.874,338.161z"/>
</g>
<path style="opacity:0.1;enable-background:new    ;" d="M165.482,240.995l-97.826-31.823l12.651,18.947
	c20.559,30.792,49.967,53.812,83.608,66.619l11.278-34.669C177.779,252.121,173.431,243.581,165.482,240.995z"/>
<rect x="17.501" y="263.504" transform="matrix(-0.951 -0.3093 0.3093 -0.951 96.8934 557.3687)" style="opacity:0.05;enable-background:new    ;" width="150.261" height="14.999"/>
<path style="fill:#E1EAEA;" d="M378.128,338.161l114.11-37.12c7.949-2.586,12.297-11.126,9.711-19.075l-22.244-68.379
	c-2.586-7.949-11.126-12.297-19.075-9.711l-114.11,37.12c-7.949,2.586-12.297,11.126-9.711,19.075l22.244,68.379
	C361.639,336.399,370.179,340.746,378.128,338.161z"/>
<path style="opacity:0.1;enable-background:new    ;" d="M346.52,240.995c-7.949,2.586-12.297,11.126-9.711,19.075l11.278,34.669
	c33.641-12.808,63.049-35.828,83.608-66.619l12.651-18.947L346.52,240.995z"/>
<rect x="411.859" y="195.888" transform="matrix(-0.3093 -0.951 0.951 -0.3093 291.3264 753.6487)" style="opacity:0.05;enable-background:new    ;" width="15.001" height="150.275"/>
<path style="fill:#F3CE72;" d="M431.695,200.473l63.996-95.85c4.813-7.208,7.381-15.681,7.381-24.349l0,0
	c0-32.393-18.383-61.979-47.425-76.326l-3.831-1.893c-10.376-5.126-22.917-0.303-27.184,10.454l-54.846,138.246
	c-17.32,43.658-59.532,72.324-106.5,72.324h-14.57c-46.968,0-89.18-28.665-106.5-72.324L87.37,12.509
	C83.102,1.752,70.561-3.07,60.186,2.055l-3.831,1.893C27.312,18.296,8.929,47.882,8.929,80.274l0,0
	c0,8.668,2.569,17.141,7.381,24.349l63.996,95.85c32.589,48.81,87.401,78.119,146.09,78.119h59.209
	C344.294,278.593,399.106,249.283,431.695,200.473z"/>
<path style="opacity:0.15;enable-background:new    ;" d="M399.104,185.379c0.547-9.341-13.135-29.268-27.345-39.597l-1.973,4.973
	c-17.32,43.658-59.532,72.324-106.5,72.324h-14.57c-46.968,0-89.18-28.666-106.5-72.324l-1.973-4.973
	c-14.209,10.329-27.892,30.256-27.345,39.597c-6.01-2.467-27.357-1.997-41.124,2.314l8.533,12.781
	c32.589,48.81,87.4,78.119,146.089,78.119h59.209c58.689,0,113.501-29.31,146.089-78.119l8.533-12.781
	C426.461,183.382,405.113,182.912,399.104,185.379z"/>
<circle style="opacity:0.1;enable-background:new    ;" cx="256.001" cy="203.91" r="49.798"/>
<circle style="fill:#F3CE72;" cx="256.001" cy="185.38" r="49.798"/>
<circle style="opacity:0.1;enable-background:new    ;" cx="256.001" cy="185.38" r="23.982"/>
<g>
</g>
<g>
</g>
<g>
</g>
<g>
</g>
<g>
</g>
<g>
</g>
<g>
</g>
<g>
</g>
<g>
</g>
<g>
</g>
<g>
</g>
<g>
</g>
<g>
</g>
<g>
</g>
<g>
</g>
</svg>
